<svg xmlns="http://www.w3.org/2000/svg" width="18.321" height="18.321" viewBox="0 0 18.321 18.321">
  <g id="Icon_ionic-ios-add-circle-outline" data-name="Icon ionic-ios-add-circle-outline" transform="translate(0.5 0.5)">
    <path id="Path_3" data-name="Path 3" d="M18.372,14.123H15.4V11.15a.638.638,0,1,0-1.277,0v2.973H11.15a.611.611,0,0,0-.638.638.618.618,0,0,0,.638.638h2.973v2.973a.618.618,0,0,0,.638.638.635.635,0,0,0,.638-.638V15.4h2.973a.638.638,0,0,0,0-1.277Z" transform="translate(-6.101 -6.101)" fill="#fff" stroke="#fff" stroke-width="1"/>
    <path id="Path_4" data-name="Path 4" d="M12.036,4.541a7.492,7.492,0,1,1-5.3,2.194,7.445,7.445,0,0,1,5.3-2.194m0-1.166A8.661,8.661,0,1,0,20.7,12.036a8.659,8.659,0,0,0-8.661-8.661Z" transform="translate(-3.375 -3.375)" fill="#fff" stroke="#fff" stroke-width="1"/>
  </g>
</svg>
