<svg xmlns="http://www.w3.org/2000/svg" width="52.193" height="17.408" viewBox="0 0 52.193 17.408">
  <path id="Icon_ionic-ios-arrow-round-forward" data-name="Icon ionic-ios-arrow-round-forward" d="M24.52,11.585a1.185,1.185,0,0,0-.009,1.668l5.512,5.521-47.071.009a1.174,1.174,0,0,0-1.17,1.179,1.174,1.174,0,0,0,1.17,1.179l47.062-.009L24.5,26.653a1.193,1.193,0,0,0,.009,1.668,1.174,1.174,0,0,0,1.659-.009l7.47-7.525h0a1.324,1.324,0,0,0,.245-.372,1.125,1.125,0,0,0,.091-.453,1.182,1.182,0,0,0-.335-.825l-7.47-7.525A1.155,1.155,0,0,0,24.52,11.585Z" transform="translate(18.217 -11.252)"/>
</svg>
