<svg xmlns="http://www.w3.org/2000/svg" width="16.154" height="18.503" viewBox="0 0 16.154 18.503">
  <path id="Icon_open-paperclip" data-name="Icon open-paperclip" d="M11.592,18.5a4.714,4.714,0,0,1-3.264-1.366l-6.436-6.3a6.352,6.352,0,0,1,8.983-8.983l2.894,2.894-1.6,1.6L9.485,3.733l-.208-.3A4.068,4.068,0,1,0,3.489,9.15l6.436,6.367a2.39,2.39,0,0,0,3.334,0,2.349,2.349,0,0,0,0-3.264L7.471,6.534a.622.622,0,0,0-.88.88l.139.069L8.837,9.66l-1.6,1.6L4.994,9.011A2.865,2.865,0,1,1,9.045,4.96l5.788,5.649a4.619,4.619,0,0,1-3.264,7.871Z" transform="translate(-0.034)" fill="#a1a1a1"/>
</svg>
