<svg xmlns="http://www.w3.org/2000/svg" width="18.833" height="17.989" viewBox="0 0 18.833 17.989">
  <path id="Icon_awesome-star-half-alt" data-name="Icon awesome-star-half-alt" d="M17.868,6.026l-5.143-.749L10.427.626a1.128,1.128,0,0,0-2.021,0l-2.3,4.651L.964,6.025A1.124,1.124,0,0,0,.341,7.943l3.72,3.619-.88,5.111a1.127,1.127,0,0,0,1.111,1.316,1.11,1.11,0,0,0,.522-.132l4.6-2.413,4.6,2.414a1.124,1.124,0,0,0,1.633-1.184l-.879-5.112,3.721-3.618a1.124,1.124,0,0,0-.623-1.918ZM13.59,10.355l-.637.619.15.874.686,3.986L10.2,13.951l-.786-.412V2.394l1.793,3.629.393.8.879.128,4.013.584-2.9,2.824Z" transform="translate(0)" fill="#3a3a3a"/>
</svg>
