<svg xmlns="http://www.w3.org/2000/svg" width="20.886" height="25.033" viewBox="0 0 20.886 25.033">
  <g id="Group_149" data-name="Group 149" transform="translate(1417 -10008)">
    <g id="Icon_ionic-ios-notifications-outline" data-name="Icon ionic-ios-notifications-outline" transform="translate(-1423.775 10004.069)">
      <path id="Path_5" data-name="Path 5" d="M18.481,28.336a.607.607,0,0,0-.6.478,1.175,1.175,0,0,1-.234.511.886.886,0,0,1-.755.277.9.9,0,0,1-.755-.277,1.175,1.175,0,0,1-.234-.511.607.607,0,0,0-.6-.478h0a.611.611,0,0,0-.6.746,2.1,2.1,0,0,0,2.18,1.74,2.091,2.091,0,0,0,2.18-1.74.614.614,0,0,0-.6-.746Z" transform="translate(-0.141 -1.858)" fill="#fff"/>
      <path id="Path_6" data-name="Path 6" d="M26.524,23.488c-.964-1.34-2.859-2.125-2.859-8.125,0-6.158-2.578-8.634-4.98-9.228C18.459,6.076,18.3,6,18.3,5.746V5.554a1.581,1.581,0,0,0-1.5-1.624h-.038a1.581,1.581,0,0,0-1.5,1.624v.191c0,.244-.163.33-.388.389-2.409.6-4.98,3.069-4.98,9.228,0,6-1.9,6.779-2.859,8.125a1.316,1.316,0,0,0,.995,2.1H25.548A1.318,1.318,0,0,0,26.524,23.488Zm-2.44.383H9.493a.291.291,0,0,1-.206-.482,8.066,8.066,0,0,0,1.314-2.2,15.7,15.7,0,0,0,.895-5.822A10.561,10.561,0,0,1,12.8,9.633a4.018,4.018,0,0,1,2.421-1.822,2.169,2.169,0,0,0,1.164-.693.478.478,0,0,1,.745-.013,2.24,2.24,0,0,0,1.176.706A4.018,4.018,0,0,1,20.73,9.633a10.561,10.561,0,0,1,1.308,5.729,15.7,15.7,0,0,0,.895,5.822,8.153,8.153,0,0,0,1.345,2.238A.275.275,0,0,1,24.084,23.871Z" transform="translate(0 0)" fill="#fff"/>
    </g>
    <circle id="Ellipse_10" data-name="Ellipse 10" cx="5" cy="5" r="5" transform="translate(-1406.114 10012)" fill="#b21111"/>
  </g>
</svg>
