<svg xmlns="http://www.w3.org/2000/svg" width="43.475" height="43.475" viewBox="0 0 43.475 43.475">
  <path id="Icon_material-call-end" data-name="Icon material-call-end" d="M22.453,14.242a27.9,27.9,0,0,0-8.607,1.347v5.8A1.885,1.885,0,0,1,12.8,23.074a21.538,21.538,0,0,0-4.977,3.461,1.838,1.838,0,0,1-1.31.524,1.865,1.865,0,0,1-1.328-.543l-4.64-4.64A1.79,1.79,0,0,1,0,20.566a1.865,1.865,0,0,1,.543-1.328,31.839,31.839,0,0,1,43.82,0,1.9,1.9,0,0,1,0,2.657l-4.64,4.64a1.865,1.865,0,0,1-1.328.543,1.92,1.92,0,0,1-1.31-.524,21.088,21.088,0,0,0-5-3.461,1.864,1.864,0,0,1-1.048-1.684v-5.8A27.16,27.16,0,0,0,22.453,14.242Z" transform="translate(50.9 19.146) rotate(135)" fill="#a7a7a7"/>
</svg>
