<svg xmlns="http://www.w3.org/2000/svg" width="15" height="13.929" viewBox="0 0 15 13.929">
  <path id="Icon_ionic-ios-star" data-name="Icon ionic-ios-star" d="M16.681,8.2H11.756l-1.5-4.467a.542.542,0,0,0-1.018,0L7.744,8.2H2.786a.537.537,0,0,0-.536.536.394.394,0,0,0,.01.09.515.515,0,0,0,.224.378l4.048,2.853L4.979,16.57a.537.537,0,0,0,.184.6.518.518,0,0,0,.3.131.656.656,0,0,0,.335-.121L9.75,14.367,13.7,17.183a.627.627,0,0,0,.335.121.481.481,0,0,0,.3-.131.531.531,0,0,0,.184-.6l-1.554-4.517,4.015-2.879.1-.084a.512.512,0,0,0-.4-.894Z" transform="translate(-2.25 -3.375)" />
</svg>
