<svg xmlns="http://www.w3.org/2000/svg" width="50" height="50" viewBox="0 0 50 50">
  <g id="Group_149" data-name="Group 149" transform="translate(-918 -984)">
    <rect id="Rectangle_74" data-name="Rectangle 74" width="50" height="50" rx="25" transform="translate(918 984)" fill="#2ea3cf"/>
    <path id="Icon_awesome-paper-plane" data-name="Icon awesome-paper-plane" d="M24.4.163.641,13.87a1.231,1.231,0,0,0,.113,2.214L6.2,18.371,20.929,5.392a.307.307,0,0,1,.441.425L9.022,20.862v4.126a1.23,1.23,0,0,0,2.179.81l3.255-3.962,6.387,2.676a1.234,1.234,0,0,0,1.692-.933L26.224,1.435A1.23,1.23,0,0,0,24.4.163Z" transform="translate(929.002 996.36)" fill="#fff"/>
  </g>
</svg>
